<svg width="199" height="172" viewBox="0 0 199 172" fill="none" xmlns="http://www.w3.org/2000/svg">
<g filter="url(#filter0_d_3_6)">
<path d="M75.2908 90.4783C68.6813 89.4154 71.0083 79.5775 71.4505 76.7656C77.1093 71.509 88.6814 60.0301 89.9988 61.8844C91.3161 63.7388 89.1081 80.9163 88.0491 85.2072C87.4172 88.3253 81.9003 91.5412 75.2908 90.4783Z" fill="white" fill-opacity="0.65" shape-rendering="crispEdges"/>
</g>
<g filter="url(#filter1_d_3_6)">
<path d="M66.7233 57.7019C60.7194 59.8735 60.7111 63.3429 60.4243 65.3569C58.6687 77.6862 67.442 77.2084 71.6938 76.689L91.96 65.7177C88.6526 61.7113 72.7272 55.5303 66.7233 57.7019Z" fill="white" fill-opacity="0.65" shape-rendering="crispEdges"/>
</g>
<g filter="url(#filter2_d_3_6)">
<path d="M92.6475 83.8632C97.9397 88.2378 102.66 87.5381 104.365 86.646C114.803 81.1844 104.315 70.2775 101.342 66.5924L86.7621 60.094C85.7222 65.5027 87.3553 79.4886 92.6475 83.8632Z" fill="white" fill-opacity="0.65" shape-rendering="crispEdges"/>
</g>
<g filter="url(#filter3_d_3_6)">
<path d="M76.9302 63.5984C73.9759 62.6173 71.2661 60.7707 69.3699 56.605C67.9552 53.497 66.1815 47.6608 67.2713 45.7187C68.3612 43.7765 74.3637 35.1783 82.4333 45.9593C88.9263 54.6338 87.1193 59.3716 87.5398 61.1128C88.0868 63.3775 87.5207 68.7261 87.5207 68.7261C87.5207 68.7261 85.6654 68.8037 82.6478 66.3116L76.9302 63.5984Z" fill="white" fill-opacity="0.65" shape-rendering="crispEdges"/>
</g>
<g filter="url(#filter4_d_3_6)">
<path d="M91.5517 61.595C100.806 50.0193 101.399 43.4981 99.4534 37.4058C94.4902 30.752 81.2441 45.177 83.1441 50.2125C82.7908 61.0976 82.2978 73.1707 91.5517 61.595Z" fill="white" fill-opacity="0.65" shape-rendering="crispEdges"/>
</g>
<g filter="url(#filter5_d_3_6)">
<path d="M95.4143 68.3176C109.466 65.8068 113.843 61.2188 116.017 55.2154C116.217 46.709 97.3935 48.6603 95.8201 53.8228C89.0022 61.9186 81.3627 70.8285 95.4143 68.3176Z" fill="white" fill-opacity="0.65" shape-rendering="crispEdges"/>
</g>
<g filter="url(#filter6_d_3_6)">
<path d="M75.2908 90.4783C68.6813 89.4154 71.0083 79.5775 71.4505 76.7656C77.1093 71.509 88.6814 60.0301 89.9988 61.8844C91.3161 63.7388 89.1081 80.9163 88.0491 85.2072C87.4172 88.3253 81.9003 91.5412 75.2908 90.4783Z" fill="white" fill-opacity="0.65" shape-rendering="crispEdges"/>
</g>
<g filter="url(#filter7_d_3_6)">
<path d="M66.7233 57.7019C60.7194 59.8735 60.7111 63.3429 60.4243 65.3569C58.6687 77.6862 67.442 77.2084 71.6938 76.689L91.96 65.7177C88.6526 61.7113 72.7272 55.5303 66.7233 57.7019Z" fill="white" fill-opacity="0.65" shape-rendering="crispEdges"/>
</g>
<g filter="url(#filter8_d_3_6)">
<path d="M92.6475 83.8632C97.9397 88.2378 102.66 87.5381 104.365 86.646C114.803 81.1844 104.315 70.2775 101.342 66.5924L86.7621 60.094C85.7222 65.5027 87.3553 79.4886 92.6475 83.8632Z" fill="white" fill-opacity="0.65" shape-rendering="crispEdges"/>
</g>
<g filter="url(#filter9_d_3_6)">
<path d="M76.9302 63.5984C73.9759 62.6173 71.2661 60.7707 69.3699 56.605C67.9552 53.497 66.1815 47.6608 67.2713 45.7187C68.3612 43.7765 74.3637 35.1783 82.4333 45.9593C88.9263 54.6338 87.1193 59.3716 87.5398 61.1128C88.0868 63.3775 87.5207 68.7261 87.5207 68.7261C87.5207 68.7261 85.6654 68.8037 82.6478 66.3116L76.9302 63.5984Z" fill="white" fill-opacity="0.65" shape-rendering="crispEdges"/>
</g>
<g filter="url(#filter10_d_3_6)">
<path d="M91.5517 61.595C100.806 50.0193 101.399 43.4981 99.4534 37.4058C94.4902 30.752 81.2441 45.177 83.1441 50.2125C82.7908 61.0976 82.2978 73.1707 91.5517 61.595Z" fill="white" fill-opacity="0.65" shape-rendering="crispEdges"/>
</g>
<g filter="url(#filter11_d_3_6)">
<path d="M95.4143 68.3176C109.466 65.8068 113.843 61.2188 116.017 55.2154C116.217 46.709 97.3935 48.6603 95.8201 53.8228C89.0022 61.9186 81.3627 70.8285 95.4143 68.3176Z" fill="white" fill-opacity="0.65" shape-rendering="crispEdges"/>
</g>
<defs>
<filter id="filter0_d_3_6" x="34.6939" y="25.6838" width="99.7122" height="109.002" filterUnits="userSpaceOnUse" color-interpolation-filters="sRGB">
<feFlood flood-opacity="0" result="BackgroundImageFix"/>
<feColorMatrix in="SourceAlpha" type="matrix" values="0 0 0 0 0 0 0 0 0 0 0 0 0 0 0 0 0 0 127 0" result="hardAlpha"/>
<feOffset dx="4" dy="4"/>
<feGaussianBlur stdDeviation="20"/>
<feComposite in2="hardAlpha" operator="out"/>
<feColorMatrix type="matrix" values="0 0 0 0 0.537255 0 0 0 0 0.686275 0 0 0 0 0.968627 0 0 0 0.6 0"/>
<feBlend mode="normal" in2="BackgroundImageFix" result="effect1_dropShadow_3_6"/>
<feBlend mode="normal" in="SourceGraphic" in2="effect1_dropShadow_3_6" result="shape"/>
</filter>
<filter id="filter1_d_3_6" x="-15.8049" y="-18.748" width="191.765" height="179.642" filterUnits="userSpaceOnUse" color-interpolation-filters="sRGB">
<feFlood flood-opacity="0" result="BackgroundImageFix"/>
<feColorMatrix in="SourceAlpha" type="matrix" values="0 0 0 0 0 0 0 0 0 0 0 0 0 0 0 0 0 0 127 0" result="hardAlpha"/>
<feOffset dx="4" dy="4"/>
<feGaussianBlur stdDeviation="40"/>
<feComposite in2="hardAlpha" operator="out"/>
<feColorMatrix type="matrix" values="0 0 0 0 0.537255 0 0 0 0 0.686275 0 0 0 0 0.968627 0 0 0 0.6 0"/>
<feBlend mode="normal" in2="BackgroundImageFix" result="effect1_dropShadow_3_6"/>
<feBlend mode="normal" in="SourceGraphic" in2="effect1_dropShadow_3_6" result="shape"/>
</filter>
<filter id="filter2_d_3_6" x="10.4656" y="-15.906" width="182.424" height="187.218" filterUnits="userSpaceOnUse" color-interpolation-filters="sRGB">
<feFlood flood-opacity="0" result="BackgroundImageFix"/>
<feColorMatrix in="SourceAlpha" type="matrix" values="0 0 0 0 0 0 0 0 0 0 0 0 0 0 0 0 0 0 127 0" result="hardAlpha"/>
<feOffset dx="4" dy="4"/>
<feGaussianBlur stdDeviation="40"/>
<feComposite in2="hardAlpha" operator="out"/>
<feColorMatrix type="matrix" values="0 0 0 0 0.537255 0 0 0 0 0.686275 0 0 0 0 0.968627 0 0 0 0.6 0"/>
<feBlend mode="normal" in2="BackgroundImageFix" result="effect1_dropShadow_3_6"/>
<feBlend mode="normal" in="SourceGraphic" in2="effect1_dropShadow_3_6" result="shape"/>
</filter>
<filter id="filter3_d_3_6" x="-9.06659" y="-35.3673" width="180.845" height="188.094" filterUnits="userSpaceOnUse" color-interpolation-filters="sRGB">
<feFlood flood-opacity="0" result="BackgroundImageFix"/>
<feColorMatrix in="SourceAlpha" type="matrix" values="0 0 0 0 0 0 0 0 0 0 0 0 0 0 0 0 0 0 127 0" result="hardAlpha"/>
<feOffset dx="4" dy="4"/>
<feGaussianBlur stdDeviation="40"/>
<feComposite in2="hardAlpha" operator="out"/>
<feColorMatrix type="matrix" values="0 0 0 0 0.535694 0 0 0 0 0.688147 0 0 0 0 0.966667 0 0 0 0.5 0"/>
<feBlend mode="normal" in2="BackgroundImageFix" result="effect1_dropShadow_3_6"/>
<feBlend mode="normal" in="SourceGraphic" in2="effect1_dropShadow_3_6" result="shape"/>
</filter>
<filter id="filter4_d_3_6" x="4.95905" y="-42.3162" width="177.397" height="190.621" filterUnits="userSpaceOnUse" color-interpolation-filters="sRGB">
<feFlood flood-opacity="0" result="BackgroundImageFix"/>
<feColorMatrix in="SourceAlpha" type="matrix" values="0 0 0 0 0 0 0 0 0 0 0 0 0 0 0 0 0 0 127 0" result="hardAlpha"/>
<feOffset dx="2" dy="2"/>
<feGaussianBlur stdDeviation="40"/>
<feComposite in2="hardAlpha" operator="out"/>
<feColorMatrix type="matrix" values="0 0 0 0 1 0 0 0 0 1 0 0 0 0 1 0 0 0 0.6 0"/>
<feBlend mode="normal" in2="BackgroundImageFix" result="effect1_dropShadow_3_6"/>
<feBlend mode="normal" in="SourceGraphic" in2="effect1_dropShadow_3_6" result="shape"/>
</filter>
<filter id="filter5_d_3_6" x="9.51788" y="-28.6089" width="188.501" height="179.358" filterUnits="userSpaceOnUse" color-interpolation-filters="sRGB">
<feFlood flood-opacity="0" result="BackgroundImageFix"/>
<feColorMatrix in="SourceAlpha" type="matrix" values="0 0 0 0 0 0 0 0 0 0 0 0 0 0 0 0 0 0 127 0" result="hardAlpha"/>
<feOffset dx="2" dy="2"/>
<feGaussianBlur stdDeviation="40"/>
<feComposite in2="hardAlpha" operator="out"/>
<feColorMatrix type="matrix" values="0 0 0 0 1 0 0 0 0 1 0 0 0 0 1 0 0 0 0.6 0"/>
<feBlend mode="normal" in2="BackgroundImageFix" result="effect1_dropShadow_3_6"/>
<feBlend mode="normal" in="SourceGraphic" in2="effect1_dropShadow_3_6" result="shape"/>
</filter>
<filter id="filter6_d_3_6" x="34.6939" y="25.6838" width="99.7122" height="109.002" filterUnits="userSpaceOnUse" color-interpolation-filters="sRGB">
<feFlood flood-opacity="0" result="BackgroundImageFix"/>
<feColorMatrix in="SourceAlpha" type="matrix" values="0 0 0 0 0 0 0 0 0 0 0 0 0 0 0 0 0 0 127 0" result="hardAlpha"/>
<feOffset dx="4" dy="4"/>
<feGaussianBlur stdDeviation="20"/>
<feComposite in2="hardAlpha" operator="out"/>
<feColorMatrix type="matrix" values="0 0 0 0 0.537255 0 0 0 0 0.686275 0 0 0 0 0.968627 0 0 0 0.6 0"/>
<feBlend mode="normal" in2="BackgroundImageFix" result="effect1_dropShadow_3_6"/>
<feBlend mode="normal" in="SourceGraphic" in2="effect1_dropShadow_3_6" result="shape"/>
</filter>
<filter id="filter7_d_3_6" x="-15.8049" y="-18.748" width="191.765" height="179.642" filterUnits="userSpaceOnUse" color-interpolation-filters="sRGB">
<feFlood flood-opacity="0" result="BackgroundImageFix"/>
<feColorMatrix in="SourceAlpha" type="matrix" values="0 0 0 0 0 0 0 0 0 0 0 0 0 0 0 0 0 0 127 0" result="hardAlpha"/>
<feOffset dx="4" dy="4"/>
<feGaussianBlur stdDeviation="40"/>
<feComposite in2="hardAlpha" operator="out"/>
<feColorMatrix type="matrix" values="0 0 0 0 0.537255 0 0 0 0 0.686275 0 0 0 0 0.968627 0 0 0 0.6 0"/>
<feBlend mode="normal" in2="BackgroundImageFix" result="effect1_dropShadow_3_6"/>
<feBlend mode="normal" in="SourceGraphic" in2="effect1_dropShadow_3_6" result="shape"/>
</filter>
<filter id="filter8_d_3_6" x="10.4656" y="-15.906" width="182.424" height="187.218" filterUnits="userSpaceOnUse" color-interpolation-filters="sRGB">
<feFlood flood-opacity="0" result="BackgroundImageFix"/>
<feColorMatrix in="SourceAlpha" type="matrix" values="0 0 0 0 0 0 0 0 0 0 0 0 0 0 0 0 0 0 127 0" result="hardAlpha"/>
<feOffset dx="4" dy="4"/>
<feGaussianBlur stdDeviation="40"/>
<feComposite in2="hardAlpha" operator="out"/>
<feColorMatrix type="matrix" values="0 0 0 0 0.537255 0 0 0 0 0.686275 0 0 0 0 0.968627 0 0 0 0.6 0"/>
<feBlend mode="normal" in2="BackgroundImageFix" result="effect1_dropShadow_3_6"/>
<feBlend mode="normal" in="SourceGraphic" in2="effect1_dropShadow_3_6" result="shape"/>
</filter>
<filter id="filter9_d_3_6" x="-9.06659" y="-35.3673" width="180.845" height="188.094" filterUnits="userSpaceOnUse" color-interpolation-filters="sRGB">
<feFlood flood-opacity="0" result="BackgroundImageFix"/>
<feColorMatrix in="SourceAlpha" type="matrix" values="0 0 0 0 0 0 0 0 0 0 0 0 0 0 0 0 0 0 127 0" result="hardAlpha"/>
<feOffset dx="4" dy="4"/>
<feGaussianBlur stdDeviation="40"/>
<feComposite in2="hardAlpha" operator="out"/>
<feColorMatrix type="matrix" values="0 0 0 0 0.535694 0 0 0 0 0.688147 0 0 0 0 0.966667 0 0 0 0.5 0"/>
<feBlend mode="normal" in2="BackgroundImageFix" result="effect1_dropShadow_3_6"/>
<feBlend mode="normal" in="SourceGraphic" in2="effect1_dropShadow_3_6" result="shape"/>
</filter>
<filter id="filter10_d_3_6" x="4.95905" y="-42.3162" width="177.397" height="190.621" filterUnits="userSpaceOnUse" color-interpolation-filters="sRGB">
<feFlood flood-opacity="0" result="BackgroundImageFix"/>
<feColorMatrix in="SourceAlpha" type="matrix" values="0 0 0 0 0 0 0 0 0 0 0 0 0 0 0 0 0 0 127 0" result="hardAlpha"/>
<feOffset dx="2" dy="2"/>
<feGaussianBlur stdDeviation="40"/>
<feComposite in2="hardAlpha" operator="out"/>
<feColorMatrix type="matrix" values="0 0 0 0 1 0 0 0 0 1 0 0 0 0 1 0 0 0 0.6 0"/>
<feBlend mode="normal" in2="BackgroundImageFix" result="effect1_dropShadow_3_6"/>
<feBlend mode="normal" in="SourceGraphic" in2="effect1_dropShadow_3_6" result="shape"/>
</filter>
<filter id="filter11_d_3_6" x="9.51788" y="-28.6089" width="188.501" height="179.358" filterUnits="userSpaceOnUse" color-interpolation-filters="sRGB">
<feFlood flood-opacity="0" result="BackgroundImageFix"/>
<feColorMatrix in="SourceAlpha" type="matrix" values="0 0 0 0 0 0 0 0 0 0 0 0 0 0 0 0 0 0 127 0" result="hardAlpha"/>
<feOffset dx="2" dy="2"/>
<feGaussianBlur stdDeviation="40"/>
<feComposite in2="hardAlpha" operator="out"/>
<feColorMatrix type="matrix" values="0 0 0 0 1 0 0 0 0 1 0 0 0 0 1 0 0 0 0.6 0"/>
<feBlend mode="normal" in2="BackgroundImageFix" result="effect1_dropShadow_3_6"/>
<feBlend mode="normal" in="SourceGraphic" in2="effect1_dropShadow_3_6" result="shape"/>
</filter>
</defs>
</svg>
